{"title":"PBS Nova - Decoding Nazi Secrets (1999) VHSrip.avi","uid":6685940,"size":732540928,"categoryP":"video","categoryS":"tv_shows","magnet":"?xt=urn:btih:27d2ec15e4fabeb6ceae1722d58e9ce2ab479a9b&amp;dn=PBS+Nova+-+Decoding+Nazi+Secrets+%281999%29+VHSrip.avi&amp;tr=udp%3A%2F%2Ftracker.openbittorrent.com%3A80&amp;tr=udp%3A%2F%2Fopen.demonii.com%3A1337&amp;tr=udp%3A%2F%2Ftracker.coppersurfer.tk%3A6969&amp;tr=udp%3A%2F%2Fexodus.desync.com%3A6969","seeders":1,"leechers":0,"uploader":"V100","files":-1,"time":1316407759,"description":"Another VHS tape from the local library. 1hour 57min.\n\nPlease help keep me seeded.\n\nVideo: XVID 512x320 29.97fps 707Kbps \nAudio: MPEG Audio Layer 3 48000Hz stereo 112Kbps  \n\n\nGeneral  \nFormat : AVI \nFormat/Info : Audio Video Interleave \nFile size : 699 MiB \nDuration : 1h 57mn \nOverall bit rate : 834 Kbps \nWriting application : VirtualDubMod 1.5.4.1 (build 2178/release) \nWriting library : VirtualDubMod build 2178/release \n\nVideo  \nFormat : MPEG-4 Visual \nFormat profile : Advanced Simple@L5 \nFormat settings, BVOP : 1 \nFormat settings, QPel : No \nFormat settings, GMC : No warppoints \nFormat settings, Matrix : Custom \nCodec ID : XVID \nCodec ID/Hint : XviD \nDuration : 1h 57mn \nBit rate : 708 Kbps \nWidth : 512 pixels \nHeight : 320 pixels \nDisplay aspect ratio : 1.600 \nFrame rate : 29.970 fps \nColor space : YUV \nChroma subsampling : 4:2:0 \nBit depth : 8 bits \nScan type : Progressive \nCompression mode : Lossy \nBits/(Pixel*Frame) : 0.144 \nStream size : 593 MiB (85%) \nWriting library : XviD 1.2.1 (UTC 2008-12-04) \n\nAudio  \nFormat : MPEG Audio \nFormat version : Version 1 \nFormat profile : Layer 3 \nMode : Joint stereo \nMode extension : MS Stereo \nCodec ID : 55 \nCodec ID/Hint : MP3 \nDuration : 1h 57mn \nBit rate mode : Variable \nBit rate : 113 Kbps \nNominal bit rate : 128 Kbps \nChannel(s) : 2 channels \nSampling rate : 48.0 KHz \nCompression mode : Lossy \nStream size : 94.3 MiB (14%) \nAlignment : Aligned on interleaves \nInterleave, duration : 24 ms (0.72 video frame) \nInterleave, preload duration : 408 ms \nWriting library : LAME3.98r \nEncoding settings : -m j -V 4 -q 2 -lowpass 17 --abr 128 \n","torrent":{"xt":"urn:btih:27d2ec15e4fabeb6ceae1722d58e9ce2ab479a9b","amp;dn":"PBS+Nova+-+Decoding+Nazi+Secrets+%281999%29+VHSrip.avi","amp;tr":["udp%3A%2F%2Ftracker.openbittorrent.com%3A80","udp%3A%2F%2Fopen.demonii.com%3A1337","udp%3A%2F%2Ftracker.coppersurfer.tk%3A6969","udp%3A%2F%2Fexodus.desync.com%3A6969"],"infoHash":"27d2ec15e4fabeb6ceae1722d58e9ce2ab479a9b","infoHashBuffer":{"type":"Buffer","data":[39,210,236,21,228,250,190,182,206,174,23,34,213,142,156,226,171,71,154,155]},"announce":[],"urlList":[]}}